<svg id="Layer_1" data-name="Layer 1" xmlns="http://www.w3.org/2000/svg" xmlns:xlink="http://www.w3.org/1999/xlink" viewBox="0 0 99.58 15.14"><defs><style>.cls-1{fill:url(#linear-gradient);}.cls-2{fill:#177fc3;}.cls-3{fill:#fff;}.cls-4{fill:url(#linear-gradient-2);}.cls-5{fill:url(#linear-gradient-3);}.cls-6{fill:url(#linear-gradient-4);}.cls-7{fill:url(#linear-gradient-5);}.cls-8{fill:url(#linear-gradient-6);}</style><linearGradient id="linear-gradient" x1="-0.04" y1="9.86" x2="11.85" y2="9.86" gradientUnits="userSpaceOnUse"><stop offset="0" stop-color="#1dc2ea"/><stop offset="1" stop-color="#177fc3"/></linearGradient><linearGradient id="linear-gradient-2" x1="480.17" y1="283.02" x2="532.31" y2="283.02" xlink:href="#linear-gradient"/><linearGradient id="linear-gradient-3" x1="480.17" y1="283.09" x2="532.3" y2="283.09" xlink:href="#linear-gradient"/><linearGradient id="linear-gradient-4" x1="480.17" y1="281.54" x2="532.31" y2="281.54" xlink:href="#linear-gradient"/><linearGradient id="linear-gradient-5" x1="480.19" y1="281.4" x2="532.29" y2="281.4" xlink:href="#linear-gradient"/><linearGradient id="linear-gradient-6" x1="480.14" y1="283.09" x2="532.31" y2="283.09" xlink:href="#linear-gradient"/></defs><title>footer-logo</title><polygon class="cls-1" points="7.81 8.77 0 8.77 0 10.96 8.5 10.96 7.81 8.77"/><polygon class="cls-2" points="6.86 8.77 7.55 10.96 8.5 10.96 7.81 8.77 6.86 8.77"/><path class="cls-3" d="M456.4,281.93c-.87-.29-2.13-.49-2.13-1.58s1.5-1.06,2.35-1.06a14.09,14.09,0,0,1,2.6.28l.21-1.63a15.32,15.32,0,0,0-3.7-.41c-2.07,0-3.68.66-3.68,2.95s1.59,2.67,3.27,3.18c1,.3,2,.4,2,1.59s-1.59,1.2-2.41,1.2a17.9,17.9,0,0,1-2.78-.28l-.21,1.67a16.12,16.12,0,0,0,3.6.41c2.28,0,4.06-.67,4.06-3.08S458.17,282.53,456.4,281.93Z" transform="translate(-430.27 -273.2)"/><path class="cls-3" d="M467.88,277.53c-3.41,0-4.64,1.45-4.64,5.35s1.23,5.36,4.64,5.36,4.64-1.52,4.64-5.36S471.29,277.53,467.88,277.53Zm0,8.94c-1.88,0-2.4-.71-2.4-3.59s.52-3.58,2.4-3.58,2.41.82,2.41,3.58S469.76,286.47,467.88,286.47Z" transform="translate(-430.27 -273.2)"/><path class="cls-3" d="M478.52,279.32v-1.65h-2.17v-2.95l-2.23.5v2.45h-1.76v1.65h1.76v6.07c0,1.92.9,2.85,3,2.85a4,4,0,0,0,1-.15l-.17-1.59c-.26,0,.09,0-.18,0-1,0-1.39-.31-1.39-1.32v-5.88Z" transform="translate(-430.27 -273.2)"/><path class="cls-3" d="M449,277.82a10,10,0,0,0-2.28-.29c-3.18,0-4.55,1.33-4.55,5.35s1.44,5.36,4.86,5.36a8.71,8.71,0,0,0,4.1-.92c.06-.63.09-1.23.09-1.91V273.2l-2.22.5Zm0,7a13.94,13.94,0,0,1-.06,1.4,4.65,4.65,0,0,1-1.9.35c-2.49,0-2.62-1.72-2.62-3.64,0-2.1.05-3.63,2.83-3.63a6.06,6.06,0,0,1,1.76.29Z" transform="translate(-430.27 -273.2)"/><polygon class="cls-3" points="29.88 14.9 32.1 14.9 32.1 0 29.88 0.5 29.88 14.9"/><polygon class="cls-3" points="0 14.9 2.44 14.9 3.68 10.96 1.34 10.96 0 14.9"/><path class="cls-3" d="M438.49,275.94a2.1,2.1,0,0,0-4.09,0l-2,6h2.28l1.71-5.46L440,288.09h2.53Z" transform="translate(-430.27 -273.2)"/><path class="cls-4" d="M482.63,288.2h-1.07v-7.83c0-.57,0-1.15,0-1.7a12.77,12.77,0,0,1,4.19-.83,3.44,3.44,0,0,1,2.69.89,8.76,8.76,0,0,1,3.95-.89c3,0,3.46,1.68,3.46,3.69v6.68h-1.07v-6.43c0-2.11-.53-3-2.79-3a7.06,7.06,0,0,0-3.05.77,5.62,5.62,0,0,1,.28,2v6.68h-1.07v-6.43c0-2.11-.52-3-2.79-3a8.87,8.87,0,0,0-2.74.55c0,.52,0,1.21,0,1.7Z" transform="translate(-430.27 -273.2)"/><path class="cls-5" d="M498,283.09c0-3.71,1.11-5.25,4.45-5.25s4.37,1.75,4.37,4.44c0,.31,0,.74,0,1.05-1.17.2-3.58.42-5,.48l-2.67.11c.19,2.15.67,3.47,3.64,3.47a25.69,25.69,0,0,0,3.59-.3l.11.92a25.63,25.63,0,0,1-4.23.32C498.86,288.34,498,286.12,498,283.09Zm4-.18c1,0,2.63-.18,3.68-.3,0-.23,0-.57,0-.82,0-1.81-.84-3-3.29-3-2.74,0-3.38,1.31-3.38,4.27Z" transform="translate(-430.27 -273.2)"/><path class="cls-6" d="M515.56,274.74h1.07v11.12c0,.56,0,1.15,0,1.69a8.4,8.4,0,0,1-3.77.79c-3.21,0-4.55-1.28-4.55-5.25s1.19-5.25,4.22-5.25a12,12,0,0,1,3.07.42Zm-2.65,4c-2.89,0-3.56,1.12-3.56,4.31s.88,4.32,3.47,4.32a7.14,7.14,0,0,0,2.71-.52c0-.51,0-1.21,0-1.7v-6A9.16,9.16,0,0,0,512.91,278.78Z" transform="translate(-430.27 -273.2)"/><path class="cls-7" d="M518.86,275.5c0-.66.15-.9.64-.9s.65.24.65.9-.13.88-.65.88S518.86,276.15,518.86,275.5ZM519,278H520V288.2H519Z" transform="translate(-430.27 -273.2)"/><path class="cls-8" d="M522.29,278.19a22.43,22.43,0,0,1,3.75-.35c2.15,0,3.82.53,3.82,3.05v5c0,.56,0,1.15,0,1.69a9.7,9.7,0,0,1-4.15.79c-2.73,0-4-.74-4-3,0-1.76.74-2.89,2.5-3.15a44.53,44.53,0,0,1,4.68-.32v-.63c0-1.78-.54-2.45-3-2.45a23.55,23.55,0,0,0-3.36.3Zm3.44,9.22a8.8,8.8,0,0,0,3-.51c0-.52,0-1.21,0-1.7v-2.44a30.21,30.21,0,0,0-4.33.29c-1.2.23-1.77.75-1.77,2.25C522.69,287,523.56,287.41,525.73,287.41Z" transform="translate(-430.27 -273.2)"/></svg>