<svg id="Layer_1" data-name="Layer 1" xmlns="http://www.w3.org/2000/svg" xmlns:xlink="http://www.w3.org/1999/xlink" viewBox="0 0 94.56 14.38"><defs><style>.cls-1{fill:url(#linear-gradient);}.cls-2{fill:#177fc3;}.cls-3{fill:#231f20;}.cls-4{fill:url(#linear-gradient-2);}.cls-5{fill:url(#linear-gradient-3);}.cls-6{fill:url(#linear-gradient-4);}.cls-7{fill:url(#linear-gradient-5);}.cls-8{fill:url(#linear-gradient-6);}</style><linearGradient id="linear-gradient" x1="-0.04" y1="9.36" x2="11.25" y2="9.36" gradientUnits="userSpaceOnUse"><stop offset="0" stop-color="#1dc2ea"/><stop offset="1" stop-color="#177fc3"/></linearGradient><linearGradient id="linear-gradient-2" x1="480.48" y1="282.44" x2="529.99" y2="282.44" xlink:href="#linear-gradient"/><linearGradient id="linear-gradient-3" x1="480.48" y1="282.5" x2="529.98" y2="282.5" xlink:href="#linear-gradient"/><linearGradient id="linear-gradient-4" x1="480.48" y1="281.03" x2="529.99" y2="281.03" xlink:href="#linear-gradient"/><linearGradient id="linear-gradient-5" x1="480.5" y1="280.9" x2="529.98" y2="280.9" xlink:href="#linear-gradient"/><linearGradient id="linear-gradient-6" x1="480.46" y1="282.5" x2="529.99" y2="282.5" xlink:href="#linear-gradient"/></defs><title>header-logo</title><polygon class="cls-1" points="7.42 8.32 0 8.32 0 10.4 8.07 10.4 7.42 8.32"/><polygon class="cls-2" points="6.51 8.32 7.17 10.4 8.07 10.4 7.42 8.32 6.51 8.32"/><path class="cls-3" d="M457.91,281.4c-.82-.28-2-.46-2-1.5s1.43-1,2.23-1a13.38,13.38,0,0,1,2.47.27l.2-1.55a14.55,14.55,0,0,0-3.51-.39c-2,0-3.49.63-3.49,2.8s1.51,2.53,3.1,3c.92.28,1.94.38,1.94,1.51s-1.51,1.14-2.29,1.14a17,17,0,0,1-2.64-.27l-.2,1.58a15.3,15.3,0,0,0,3.41.39c2.17,0,3.86-.64,3.86-2.92S459.59,282,457.91,281.4Z" transform="translate(-433.1 -273.1)"/><path class="cls-3" d="M468.81,277.22c-3.24,0-4.4,1.38-4.4,5.08s1.17,5.09,4.4,5.09,4.41-1.44,4.41-5.09S472,277.22,468.81,277.22Zm0,8.49c-1.79,0-2.28-.68-2.28-3.41s.49-3.4,2.28-3.4,2.29.78,2.29,3.4S470.6,285.71,468.81,285.71Z" transform="translate(-433.1 -273.1)"/><path class="cls-3" d="M478.92,278.92v-1.57h-2.06v-2.8l-2.12.47v2.32h-1.67v1.57h1.67v5.76c0,1.82.85,2.7,2.86,2.7a3.76,3.76,0,0,0,.91-.15l-.16-1.51c-.25,0,.09,0-.17,0-.92,0-1.32-.29-1.32-1.25v-5.59Z" transform="translate(-433.1 -273.1)"/><path class="cls-3" d="M450.84,277.49a9.54,9.54,0,0,0-2.16-.27c-3,0-4.32,1.26-4.32,5.08s1.36,5.09,4.62,5.09a8.28,8.28,0,0,0,3.89-.87c.06-.6.08-1.17.08-1.82V273.1l-2.1.47Zm0,6.61a13.21,13.21,0,0,1-.06,1.33,4.41,4.41,0,0,1-1.81.33c-2.36,0-2.49-1.64-2.49-3.46,0-2,.05-3.45,2.69-3.45a5.76,5.76,0,0,1,1.67.28Z" transform="translate(-433.1 -273.1)"/><polygon class="cls-3" points="28.37 14.15 30.49 14.15 30.49 0 28.37 0.47 28.37 14.15"/><polygon class="cls-3" points="0 14.15 2.32 14.15 3.5 10.4 1.27 10.4 0 14.15"/><path class="cls-3" d="M440.9,275.71a2,2,0,0,0-3.88,0l-1.94,5.72h2.16l1.62-5.18,3.5,11h2.4Z" transform="translate(-433.1 -273.1)"/><path class="cls-4" d="M482.82,287.36h-1v-7.44c0-.54,0-1.1,0-1.61a12.14,12.14,0,0,1,4-.79,3.27,3.27,0,0,1,2.55.85,8.32,8.32,0,0,1,3.75-.85c2.86,0,3.29,1.6,3.29,3.5v6.34h-1v-6.1c0-2-.5-2.84-2.65-2.84a6.7,6.7,0,0,0-2.9.73,5.33,5.33,0,0,1,.26,1.87v6.34h-1v-6.1c0-2-.5-2.84-2.65-2.84a8.4,8.4,0,0,0-2.6.52c0,.49,0,1.15,0,1.61Z" transform="translate(-433.1 -273.1)"/><path class="cls-5" d="M497.38,282.5c0-3.52,1.05-5,4.22-5s4.15,1.66,4.15,4.22c0,.3,0,.7,0,1-1.11.19-3.4.4-4.77.46l-2.54.1c.18,2,.63,3.3,3.46,3.3a24.23,24.23,0,0,0,3.41-.28l.1.87a24.23,24.23,0,0,1-4,.31C498.22,287.48,497.38,285.38,497.38,282.5Zm3.83-.17c.91,0,2.5-.17,3.5-.29,0-.22,0-.54,0-.77,0-1.72-.8-2.86-3.12-2.86-2.6,0-3.21,1.24-3.21,4.06Z" transform="translate(-433.1 -273.1)"/><path class="cls-6" d="M514.09,274.57h1v10.56c0,.54,0,1.09,0,1.6a8,8,0,0,1-3.58.75c-3,0-4.32-1.21-4.32-5s1.13-5,4-5a11.38,11.38,0,0,1,2.91.4Zm-2.52,3.84c-2.74,0-3.38,1.06-3.38,4.09s.84,4.1,3.3,4.1a6.79,6.79,0,0,0,2.57-.49c0-.48,0-1.15,0-1.61v-5.67A8.69,8.69,0,0,0,511.57,278.41Z" transform="translate(-433.1 -273.1)"/><path class="cls-7" d="M517.22,275.3c0-.62.14-.86.61-.86s.62.23.62.86-.12.83-.62.83S517.22,275.91,517.22,275.3Zm.1,2.35h1v9.71h-1Z" transform="translate(-433.1 -273.1)"/><path class="cls-8" d="M520.48,277.85a21.27,21.27,0,0,1,3.56-.33c2,0,3.62.51,3.62,2.9v4.71c0,.54,0,1.09,0,1.6a9.21,9.21,0,0,1-3.94.75c-2.59,0-3.84-.7-3.84-2.85,0-1.67.7-2.74,2.37-3a42.28,42.28,0,0,1,4.44-.3v-.6c0-1.69-.52-2.33-2.88-2.33a22.34,22.34,0,0,0-3.2.29Zm3.27,8.76a8.36,8.36,0,0,0,2.87-.49c0-.49,0-1.15,0-1.61v-2.32a28.66,28.66,0,0,0-4.11.28c-1.14.22-1.68.72-1.68,2.14C520.85,286.21,521.68,286.61,523.74,286.61Z" transform="translate(-433.1 -273.1)"/></svg>