<svg id="Layer_1" data-name="Layer 1" xmlns="http://www.w3.org/2000/svg" viewBox="0 0 25.02 25"><defs><style>.cls-1{fill:#808285;}</style></defs><title>search-box-icon</title><path class="cls-1" d="M492.67,288.47l-.15-.15h0l-6-6A9.92,9.92,0,0,0,478,267.4h-.07a9.92,9.92,0,0,0-.06,19.83h.07a9.87,9.87,0,0,0,5-1.35l6,6h0l.15.15a1.17,1.17,0,0,0,1.65,0l1.94-1.94A1.17,1.17,0,0,0,492.67,288.47Zm-9.56-5.91a7.34,7.34,0,0,1-5.21,2.15h0a7.39,7.39,0,0,1,0-14.77h0a7.39,7.39,0,0,1,5.16,12.63Z" transform="translate(-467.99 -267.4)"/></svg>